<svg width="24" height="24" viewBox="0 0 24 24" fill="none" xmlns="http://www.w3.org/2000/svg">
<path d="M11.9995 13.9993C13.104 13.9993 13.9994 13.1039 13.9994 11.9994C13.9994 10.8949 13.104 9.99951 11.9995 9.99951C10.895 9.99951 9.99957 10.8949 9.99957 11.9994C9.99957 13.1039 10.895 13.9993 11.9995 13.9993Z" fill="white"/>
<path d="M7.75768 16.2422L9.17162 14.8273C8.7983 14.4567 8.50236 14.0156 8.301 13.5296C8.09963 13.0436 7.99687 12.5225 7.99867 11.9964C7.99867 10.9285 8.41565 9.92552 9.17162 9.17155L7.75768 7.75562C7.19848 8.31079 6.75498 8.9714 6.45289 9.69918C6.15079 10.427 5.99609 11.2074 5.99775 11.9954C5.99775 13.5994 6.62273 15.1073 7.75768 16.2422ZM16.2413 16.2422C16.8004 15.6864 17.2436 15.0253 17.5454 14.297C17.8471 13.5687 18.0014 12.7878 17.9992 11.9994C18.0014 11.2111 17.8471 10.4302 17.5454 9.70189C17.2436 8.9736 16.8004 8.31241 16.2413 7.75662L14.8274 9.17055C15.5833 9.92652 15.9993 10.9315 15.9993 11.9994C15.9993 13.0674 15.5833 14.0723 14.8274 14.8283L16.2413 16.2422Z" fill="white"/>
<path d="M6.3439 17.6562C5.59835 16.9148 5.00722 16.0329 4.60471 15.0616C4.20219 14.0903 3.99629 13.0488 3.9989 11.9974C3.9989 9.86049 4.8319 7.85258 6.3439 6.34365L4.9299 4.92871C3.0399 6.81463 1.9989 9.32552 1.9989 11.9974C1.9989 14.6693 3.0399 17.1802 4.9299 19.0701L6.3439 17.6562ZM17.6569 6.34265C18.4021 7.0838 18.9928 7.96537 19.395 8.93635C19.7972 9.90733 20.0028 10.9484 19.9999 11.9994C20.0028 13.0504 19.7972 14.0915 19.395 15.0624C18.9928 16.0334 18.4021 16.915 17.6569 17.6562L19.0709 19.0701C20.0025 18.1438 20.7411 17.0419 21.2439 15.8282C21.7466 14.6145 22.0036 13.3131 21.9999 11.9994C22.0035 10.6857 21.7465 9.38436 21.2437 8.17067C20.741 6.95698 20.0024 5.85506 19.0709 4.92871L17.6569 6.34265Z" fill="white"/>
</svg>
