<svg width="110" height="32" viewBox="0 0 110 32" fill="none" xmlns="http://www.w3.org/2000/svg">
<path fill-rule="evenodd" clip-rule="evenodd" d="M27.3033 12.7409C27.3033 11.4313 26.9567 10.5327 26.2275 9.92985C24.6227 8.60458 21.6002 8.69978 19.4206 8.91105C17.7476 9.07332 15.6082 9.50037 14.8727 11.2273C14.2923 12.5901 15.5613 13.8303 16.6634 14.3456C18.3804 15.1482 20.428 15.4988 22.246 16.0232C24.066 16.5486 27.2087 17.3637 26.0888 19.9093C25.1758 21.9865 21.6747 21.6547 19.864 21.5755C18.6505 21.5227 17.4877 21.4066 16.5799 20.5129C16.032 19.9733 16.162 19.1463 16.162 18.4534H15.0676C15.0676 19.8986 15.271 20.7815 16.6295 21.5637C18.1432 22.4355 20.4349 22.259 22.1118 22.2162C23.7834 22.1731 25.688 21.8604 26.8393 20.5355C28.042 19.1515 27.1908 17.4906 25.8893 16.6021C25.1499 16.0968 24.2097 15.9054 23.362 15.659C22.3655 15.3699 21.3679 15.0846 20.371 14.798C18.7959 14.3445 16.1291 14.0648 15.8839 12.0776C15.5624 9.47952 19.8822 9.41802 21.5653 9.40064C23.8393 9.37771 25.1531 9.85757 25.6436 10.474C26.1084 11.0574 26.2093 11.9205 26.2093 12.7409H27.3033ZM47.6812 16.6359C47.6812 17.4143 47.8035 18.3035 47.5288 19.0498C46.7413 21.1896 44.1888 21.8915 42.1378 21.9252C40.0521 21.9593 37.7369 21.1715 36.8012 19.1802C36.4455 18.424 36.594 17.4417 36.594 16.6359V8.73332H35.5181V16.802C35.5181 17.6075 35.4262 18.44 35.7093 19.2093C36.2694 20.7313 37.8382 21.6743 39.31 22.1427C42.3708 23.1157 47.9115 22.4718 48.7266 18.6485C48.9094 17.7937 48.757 16.7801 48.757 15.916V10.7911V8.73332H47.6812V16.6359ZM69.5181 16.6302V21.3183C69.5181 22.1227 68.7323 21.6665 68.6009 21.4834C68.5129 21.3607 68.4251 21.238 68.3367 21.1154C66.5698 18.6549 64.8031 16.1951 63.0365 13.735C62.2011 12.5724 61.3667 11.4104 60.5319 10.2481C60.0525 9.58095 59.6594 8.87453 58.7765 8.68967C57.6252 8.44957 56.8991 8.90928 56.8991 10.0288V14.2625V22.1884H57.9931V14.4741V9.78491C57.9931 9.06599 58.7744 9.43223 58.9103 9.6216C58.9987 9.74426 59.0864 9.86657 59.1741 9.98888C60.9414 12.4494 62.7081 14.9095 64.4747 17.3693C65.3098 18.5319 66.1442 19.6942 66.9789 20.8565C67.4517 21.5139 67.8504 22.2468 68.7194 22.4264C69.8731 22.6637 70.6121 22.1999 70.6121 21.0751V16.8425V8.91553H69.5181V16.6302ZM88.4277 8.66066C83.3766 8.66066 78.8961 10.8129 78.7734 15.5334C78.6497 20.3292 84.4881 22.5166 88.4277 22.5701C92.563 22.6271 97.959 20.2545 98.0816 15.5334C97.9565 10.7323 93.4788 8.66066 88.4277 8.66066ZM88.2932 21.8626C83.357 21.8626 79.989 19.7097 79.8832 15.5334C79.7745 11.2917 83.6806 9.33233 88.2932 9.33233C92.9065 9.33233 96.8118 11.2917 96.7042 15.5334C96.5976 19.7097 93.2293 21.8626 88.2932 21.8626Z" fill="#4B4B4B"/>
<mask id="mask0_1_1845" style="mask-type:alpha" maskUnits="userSpaceOnUse" x="103" y="0" width="7" height="32">
<path d="M110 0.000488281V31.2852H103.989V0.000488281H110Z" fill="#D42126"/>
</mask>
<g mask="url(#mask0_1_1845)">
<path fill-rule="evenodd" clip-rule="evenodd" d="M110 15.6427C110 22.7336 108.395 27.8835 106.717 31.2853H103.989C105.12 27.9968 106.28 21.4997 106.28 15.6427C106.28 9.78528 105.12 3.28854 103.989 0.000732422H106.717C108.395 3.40217 110 8.55175 110 15.6427Z" fill="#D42126"/>
</g>
<mask id="mask1_1_1845" style="mask-type:alpha" maskUnits="userSpaceOnUse" x="0" y="0" width="7" height="32">
<path d="M0 31.2847V0H6.01044V31.2847H0Z" fill="#D42126"/>
</mask>
<g mask="url(#mask1_1_1845)">
<path fill-rule="evenodd" clip-rule="evenodd" d="M3.28214 0.000488281H6.01035C4.88035 3.2883 3.7196 9.78504 3.7196 15.6424C3.7196 21.5005 4.88035 27.9972 6.01035 31.2851H3.28214C1.60461 27.884 -0.000244141 22.7333 -0.000244141 15.6424C-0.000244141 8.5522 1.60461 3.40192 3.28214 0.000488281Z" fill="#D42126"/>
</g>
</svg>
